<svg width="70" height="16" viewBox="0 0 70 16" fill="none" xmlns="http://www.w3.org/2000/svg">
<path d="M8.00005 11.6797L10.7667 13.3531C11.2734 13.6597 11.8934 13.2064 11.76 12.6331L11.0267 9.4864L13.4734 7.3664C13.92 6.97973 13.68 6.2464 13.0934 6.19973L9.87338 5.9264L8.61338 2.95307C8.38672 2.41307 7.61338 2.41307 7.38671 2.95307L6.12672 5.91973L2.90672 6.19307C2.32005 6.23973 2.08005 6.97307 2.52672 7.35973L4.97338 9.47973L4.24005 12.6264C4.10672 13.1997 4.72672 13.6531 5.23338 13.3464L8.00005 11.6797Z" fill="#FFD130"/>
<path d="M26 11.6797L28.7667 13.3531C29.2734 13.6597 29.8934 13.2064 29.76 12.6331L29.0267 9.4864L31.4734 7.3664C31.92 6.97973 31.68 6.2464 31.0934 6.19973L27.8734 5.9264L26.6134 2.95307C26.3867 2.41307 25.6134 2.41307 25.3867 2.95307L24.1267 5.91973L20.9067 6.19307C20.32 6.23973 20.08 6.97307 20.5267 7.35973L22.9734 9.47973L22.24 12.6264C22.1067 13.1997 22.7267 13.6531 23.2334 13.3464L26 11.6797Z" fill="#FFD130"/>
<path d="M44 11.6797L46.7667 13.3531C47.2734 13.6597 47.8934 13.2064 47.76 12.6331L47.0267 9.4864L49.4734 7.3664C49.92 6.97973 49.68 6.2464 49.0934 6.19973L45.8734 5.9264L44.6134 2.95307C44.3867 2.41307 43.6134 2.41307 43.3867 2.95307L42.1267 5.91973L38.9067 6.19307C38.32 6.23973 38.08 6.97307 38.5267 7.35973L40.9734 9.47973L40.24 12.6264C40.1067 13.1997 40.7267 13.6531 41.2334 13.3464L44 11.6797Z" fill="#FFD130"/>
<path d="M61.3854 2.94931C61.6121 2.40972 62.385 2.40992 62.6119 2.94931L63.8727 5.91611L67.0992 6.19638C67.6858 6.24316 67.9189 6.97674 67.4723 7.36337L65.026 9.48349L65.7594 12.6368C65.8923 13.2098 65.2727 13.6626 64.7662 13.3565L61.9987 11.6827L59.2321 13.3497C58.7255 13.656 58.1058 13.2031 58.2389 12.63L58.9723 9.48349L56.526 7.36337C56.0793 6.97671 56.3192 6.24305 56.9059 6.19638L60.1256 5.92294L61.3854 2.94931ZM61.9987 10.4366L64.5123 11.9561L63.8453 9.10263L66.0592 7.18271L63.1393 6.92978L61.9987 4.23642V10.4366Z" fill="#FFD130"/>
</svg>
