<svg width="52" height="16" viewBox="0 0 52 16" fill="none" xmlns="http://www.w3.org/2000/svg">
<path d="M8.00005 11.6797L10.7667 13.3531C11.2734 13.6597 11.8934 13.2064 11.76 12.6331L11.0267 9.4864L13.4734 7.3664C13.92 6.97973 13.68 6.2464 13.0934 6.19973L9.87338 5.9264L8.61338 2.95307C8.38672 2.41307 7.61338 2.41307 7.38671 2.95307L6.12672 5.91973L2.90672 6.19307C2.32005 6.23973 2.08005 6.97307 2.52672 7.35973L4.97338 9.47973L4.24005 12.6264C4.10672 13.1997 4.72672 13.6531 5.23338 13.3464L8.00005 11.6797Z" fill="#FFD130"/>
<path d="M26 11.6797L28.7667 13.3531C29.2734 13.6597 29.8934 13.2064 29.76 12.6331L29.0267 9.4864L31.4734 7.3664C31.92 6.97973 31.68 6.2464 31.0934 6.19973L27.8734 5.9264L26.6134 2.95307C26.3867 2.41307 25.6134 2.41307 25.3867 2.95307L24.1267 5.91973L20.9067 6.19307C20.32 6.23973 20.08 6.97307 20.5267 7.35973L22.9734 9.47973L22.24 12.6264C22.1067 13.1997 22.7267 13.6531 23.2334 13.3464L26 11.6797Z" fill="#FFD130"/>
<path d="M44 11.6797L46.7667 13.3531C47.2734 13.6597 47.8934 13.2064 47.76 12.6331L47.0267 9.4864L49.4734 7.3664C49.92 6.97973 49.68 6.2464 49.0934 6.19973L45.8734 5.9264L44.6134 2.95307C44.3867 2.41307 43.6134 2.41307 43.3867 2.95307L42.1267 5.91973L38.9067 6.19307C38.32 6.23973 38.08 6.97307 38.5267 7.35973L40.9734 9.47973L40.24 12.6264C40.1067 13.1997 40.7267 13.6531 41.2334 13.3464L44 11.6797Z" fill="#FFD130"/>
</svg>
